<svg width="501" height="218" viewBox="0 0 501 218" fill="none" xmlns="http://www.w3.org/2000/svg">
<rect width="501" height="218" fill="#434343"/>
<path d="M63.19 38V87H72.99V68.24H75.23C76.3033 68.24 77.0733 68.5433 77.54 69.15C78.0533 69.71 78.31 70.62 78.31 71.88V76.92C78.31 78.8333 78.3333 80.63 78.38 82.31C78.4733 83.9433 78.6833 85.5067 79.01 87H88.81C88.4833 85.6 88.2733 84.13 88.18 82.59C88.1333 81.0033 88.11 79.16 88.11 77.06V76.29C88.11 74.5167 87.8767 72.9067 87.41 71.46C86.99 70.0133 86.43 68.8 85.73 67.82C85.0767 66.7933 84.3067 65.9767 83.42 65.37C82.58 64.7633 81.74 64.4133 80.9 64.32V63.69C81.74 63.5967 82.58 63.27 83.42 62.71C84.3067 62.15 85.0767 61.3567 85.73 60.33C86.43 59.3033 86.99 58.0667 87.41 56.62C87.8767 55.1267 88.11 53.4 88.11 51.44V51.09C88.11 46.7033 86.99 43.4367 84.75 41.29C82.51 39.0967 79.36 38 75.3 38H63.19ZM72.99 46.47H75.23C76.3033 46.47 77.0733 46.7967 77.54 47.45C78.0533 48.0567 78.31 48.99 78.31 50.25V55.99C78.31 57.2967 78.0533 58.2533 77.54 58.86C77.0733 59.4667 76.3033 59.77 75.23 59.77H72.99V46.47ZM104.884 61.87V67.68H99.4938C98.1404 67.68 96.9271 67.8667 95.8538 68.24C94.7804 68.6133 93.8471 69.15 93.0538 69.85C92.3071 70.5033 91.7238 71.32 91.3038 72.3C90.9304 73.2333 90.7438 74.26 90.7438 75.38V79.93C90.7438 82.2633 91.3738 84.1533 92.6338 85.6C93.9404 87 95.6204 87.7 97.6738 87.7C99.0271 87.7 100.287 87.3733 101.454 86.72C102.62 86.02 103.67 84.97 104.604 83.57H104.884V87H114.124V62.43C114.124 58.79 113.05 55.92 110.904 53.82C108.804 51.6733 105.98 50.6 102.434 50.6C100.614 50.6 99.0038 50.88 97.6038 51.44C96.2038 52 94.9904 52.7933 93.9638 53.82C92.9838 54.8 92.2138 56.0367 91.6538 57.53C91.1404 58.9767 90.8838 60.61 90.8838 62.43V66.14H100.194V61.87C100.194 61.4033 100.24 60.96 100.334 60.54C100.474 60.12 100.637 59.77 100.824 59.49C101.01 59.21 101.244 59 101.524 58.86C101.85 58.6733 102.177 58.58 102.504 58.58C103.204 58.58 103.764 58.8833 104.184 59.49C104.65 60.0967 104.884 60.89 104.884 61.87ZM104.884 78.32C104.604 79.02 104.23 79.5567 103.764 79.93C103.344 80.2567 102.807 80.42 102.154 80.42C101.5 80.42 100.964 80.21 100.544 79.79C100.17 79.3233 99.9838 78.6933 99.9838 77.9V74.82C99.9838 73.9333 100.24 73.3033 100.754 72.93C101.314 72.51 102.154 72.3 103.274 72.3H104.884V78.32ZM116.942 51.3V87H126.182V51.3H116.942ZM116.312 43.25C116.312 44.8367 116.778 46.0267 117.712 46.82C118.645 47.5667 119.928 47.94 121.562 47.94C123.195 47.94 124.478 47.5667 125.412 46.82C126.345 46.0267 126.812 44.8367 126.812 43.25C126.812 41.6167 126.322 40.4267 125.342 39.68C124.408 38.8867 123.125 38.49 121.492 38.49C119.858 38.49 118.575 38.8867 117.642 39.68C116.755 40.4267 116.312 41.6167 116.312 43.25ZM152.285 87V36.6H143.045V55.01H142.345C141.785 53.61 140.898 52.5133 139.685 51.72C138.518 50.9267 137.235 50.53 135.835 50.53C134.948 50.53 134.085 50.74 133.245 51.16C132.405 51.5333 131.658 52.0933 131.005 52.84C130.351 53.5867 129.838 54.52 129.465 55.64C129.091 56.76 128.905 58.0667 128.905 59.56V76.85C128.905 78.5767 129.091 80.1167 129.465 81.47C129.885 82.8233 130.421 83.9667 131.075 84.9C131.728 85.8333 132.475 86.5333 133.315 87C134.201 87.4667 135.135 87.7 136.115 87.7C137.328 87.7 138.495 87.3267 139.615 86.58C140.735 85.7867 141.645 84.6433 142.345 83.15H143.045V87H152.285ZM143.045 77.34C142.905 77.6667 142.741 77.97 142.555 78.25C142.368 78.4833 142.158 78.6933 141.925 78.88C141.738 79.0667 141.505 79.2067 141.225 79.3C140.991 79.3933 140.735 79.44 140.455 79.44C139.801 79.44 139.241 79.1833 138.775 78.67C138.355 78.11 138.145 77.3867 138.145 76.5V61.66C138.145 61.1933 138.191 60.7967 138.285 60.47C138.425 60.0967 138.588 59.7933 138.775 59.56C139.008 59.28 139.265 59.07 139.545 58.93C139.825 58.79 140.128 58.72 140.455 58.72C141.061 58.72 141.575 58.9067 141.995 59.28C142.461 59.6533 142.811 60.1433 143.045 60.75V77.34ZM163.993 61.87C163.993 61.4033 164.063 60.96 164.203 60.54C164.343 60.12 164.506 59.77 164.693 59.49C164.879 59.21 165.136 59 165.463 58.86C165.789 58.6733 166.116 58.58 166.443 58.58C167.189 58.58 167.773 58.8833 168.193 59.49C168.659 60.0967 168.893 60.89 168.893 61.87V66.35H162.803V71.39H178.133V62.43C178.133 58.79 177.059 55.92 174.913 53.82C172.813 51.6733 169.966 50.6 166.373 50.6C164.553 50.6 162.919 50.88 161.473 51.44C160.073 52 158.859 52.7933 157.833 53.82C156.853 54.8 156.083 56.0367 155.523 57.53C155.009 58.9767 154.753 60.61 154.753 62.43V75.87C154.753 79.5567 155.779 82.45 157.833 84.55C159.886 86.65 162.733 87.7 166.373 87.7C168.146 87.7 169.756 87.42 171.203 86.86C172.696 86.3 173.933 85.5067 174.913 84.48C175.939 83.4533 176.733 82.2167 177.293 80.77C177.853 79.3233 178.133 77.69 178.133 75.87V73.49H168.893V76.36C168.893 76.8733 168.823 77.34 168.683 77.76C168.589 78.18 168.426 78.53 168.193 78.81C168.006 79.09 167.749 79.3233 167.423 79.51C167.143 79.65 166.816 79.72 166.443 79.72C165.696 79.72 165.089 79.4167 164.623 78.81C164.203 78.2033 163.993 77.3867 163.993 76.36V61.87ZM180.671 87H189.911V51.3H180.671V87ZM194.811 87H204.051V60.26C204.051 58.6267 203.864 57.2033 203.491 55.99C203.117 54.7767 202.604 53.7733 201.951 52.98C201.344 52.14 200.621 51.5333 199.781 51.16C198.941 50.7867 198.031 50.6 197.051 50.6C195.651 50.6 194.391 50.9967 193.271 51.79C192.197 52.5833 191.311 53.7733 190.611 55.36H189.771V61.45C189.911 61.03 190.074 60.6567 190.261 60.33C190.447 59.9567 190.657 59.6533 190.891 59.42C191.171 59.1867 191.451 59 191.731 58.86C192.011 58.72 192.314 58.65 192.641 58.65C193.247 58.65 193.761 58.93 194.181 59.49C194.601 60.0033 194.811 60.7033 194.811 61.59V87ZM206.587 87H215.827V51.3H206.587V87ZM220.727 87H229.967V60.26C229.967 58.6267 229.781 57.2033 229.407 55.99C229.034 54.7767 228.521 53.7733 227.867 52.98C227.261 52.14 226.537 51.5333 225.697 51.16C224.857 50.7867 223.947 50.6 222.967 50.6C221.567 50.6 220.307 50.9967 219.187 51.79C218.114 52.5833 217.227 53.7733 216.527 55.36H215.687V61.45C215.827 61.03 215.991 60.6567 216.177 60.33C216.364 59.9567 216.574 59.6533 216.807 59.42C217.087 59.1867 217.367 59 217.647 58.86C217.927 58.72 218.231 58.65 218.557 58.65C219.164 58.65 219.677 58.93 220.097 59.49C220.517 60.0033 220.727 60.7033 220.727 61.59V87Z" fill="#F4FEFF"/>
<path d="M63.19 38V87H72.99V68.24H75.23C76.3033 68.24 77.0733 68.5433 77.54 69.15C78.0533 69.71 78.31 70.62 78.31 71.88V76.92C78.31 78.8333 78.3333 80.63 78.38 82.31C78.4733 83.9433 78.6833 85.5067 79.01 87H88.81C88.4833 85.6 88.2733 84.13 88.18 82.59C88.1333 81.0033 88.11 79.16 88.11 77.06V76.29C88.11 74.5167 87.8767 72.9067 87.41 71.46C86.99 70.0133 86.43 68.8 85.73 67.82C85.0767 66.7933 84.3067 65.9767 83.42 65.37C82.58 64.7633 81.74 64.4133 80.9 64.32V63.69C81.74 63.5967 82.58 63.27 83.42 62.71C84.3067 62.15 85.0767 61.3567 85.73 60.33C86.43 59.3033 86.99 58.0667 87.41 56.62C87.8767 55.1267 88.11 53.4 88.11 51.44V51.09C88.11 46.7033 86.99 43.4367 84.75 41.29C82.51 39.0967 79.36 38 75.3 38H63.19ZM72.99 46.47H75.23C76.3033 46.47 77.0733 46.7967 77.54 47.45C78.0533 48.0567 78.31 48.99 78.31 50.25V55.99C78.31 57.2967 78.0533 58.2533 77.54 58.86C77.0733 59.4667 76.3033 59.77 75.23 59.77H72.99V46.47ZM104.884 61.87V67.68H99.4938C98.1404 67.68 96.9271 67.8667 95.8538 68.24C94.7804 68.6133 93.8471 69.15 93.0538 69.85C92.3071 70.5033 91.7238 71.32 91.3038 72.3C90.9304 73.2333 90.7438 74.26 90.7438 75.38V79.93C90.7438 82.2633 91.3738 84.1533 92.6338 85.6C93.9404 87 95.6204 87.7 97.6738 87.7C99.0271 87.7 100.287 87.3733 101.454 86.72C102.62 86.02 103.67 84.97 104.604 83.57H104.884V87H114.124V62.43C114.124 58.79 113.05 55.92 110.904 53.82C108.804 51.6733 105.98 50.6 102.434 50.6C100.614 50.6 99.0038 50.88 97.6038 51.44C96.2038 52 94.9904 52.7933 93.9638 53.82C92.9838 54.8 92.2138 56.0367 91.6538 57.53C91.1404 58.9767 90.8838 60.61 90.8838 62.43V66.14H100.194V61.87C100.194 61.4033 100.24 60.96 100.334 60.54C100.474 60.12 100.637 59.77 100.824 59.49C101.01 59.21 101.244 59 101.524 58.86C101.85 58.6733 102.177 58.58 102.504 58.58C103.204 58.58 103.764 58.8833 104.184 59.49C104.65 60.0967 104.884 60.89 104.884 61.87ZM104.884 78.32C104.604 79.02 104.23 79.5567 103.764 79.93C103.344 80.2567 102.807 80.42 102.154 80.42C101.5 80.42 100.964 80.21 100.544 79.79C100.17 79.3233 99.9838 78.6933 99.9838 77.9V74.82C99.9838 73.9333 100.24 73.3033 100.754 72.93C101.314 72.51 102.154 72.3 103.274 72.3H104.884V78.32ZM116.942 51.3V87H126.182V51.3H116.942ZM116.312 43.25C116.312 44.8367 116.778 46.0267 117.712 46.82C118.645 47.5667 119.928 47.94 121.562 47.94C123.195 47.94 124.478 47.5667 125.412 46.82C126.345 46.0267 126.812 44.8367 126.812 43.25C126.812 41.6167 126.322 40.4267 125.342 39.68C124.408 38.8867 123.125 38.49 121.492 38.49C119.858 38.49 118.575 38.8867 117.642 39.68C116.755 40.4267 116.312 41.6167 116.312 43.25ZM152.285 87V36.6H143.045V55.01H142.345C141.785 53.61 140.898 52.5133 139.685 51.72C138.518 50.9267 137.235 50.53 135.835 50.53C134.948 50.53 134.085 50.74 133.245 51.16C132.405 51.5333 131.658 52.0933 131.005 52.84C130.351 53.5867 129.838 54.52 129.465 55.64C129.091 56.76 128.905 58.0667 128.905 59.56V76.85C128.905 78.5767 129.091 80.1167 129.465 81.47C129.885 82.8233 130.421 83.9667 131.075 84.9C131.728 85.8333 132.475 86.5333 133.315 87C134.201 87.4667 135.135 87.7 136.115 87.7C137.328 87.7 138.495 87.3267 139.615 86.58C140.735 85.7867 141.645 84.6433 142.345 83.15H143.045V87H152.285ZM143.045 77.34C142.905 77.6667 142.741 77.97 142.555 78.25C142.368 78.4833 142.158 78.6933 141.925 78.88C141.738 79.0667 141.505 79.2067 141.225 79.3C140.991 79.3933 140.735 79.44 140.455 79.44C139.801 79.44 139.241 79.1833 138.775 78.67C138.355 78.11 138.145 77.3867 138.145 76.5V61.66C138.145 61.1933 138.191 60.7967 138.285 60.47C138.425 60.0967 138.588 59.7933 138.775 59.56C139.008 59.28 139.265 59.07 139.545 58.93C139.825 58.79 140.128 58.72 140.455 58.72C141.061 58.72 141.575 58.9067 141.995 59.28C142.461 59.6533 142.811 60.1433 143.045 60.75V77.34ZM163.993 61.87C163.993 61.4033 164.063 60.96 164.203 60.54C164.343 60.12 164.506 59.77 164.693 59.49C164.879 59.21 165.136 59 165.463 58.86C165.789 58.6733 166.116 58.58 166.443 58.58C167.189 58.58 167.773 58.8833 168.193 59.49C168.659 60.0967 168.893 60.89 168.893 61.87V66.35H162.803V71.39H178.133V62.43C178.133 58.79 177.059 55.92 174.913 53.82C172.813 51.6733 169.966 50.6 166.373 50.6C164.553 50.6 162.919 50.88 161.473 51.44C160.073 52 158.859 52.7933 157.833 53.82C156.853 54.8 156.083 56.0367 155.523 57.53C155.009 58.9767 154.753 60.61 154.753 62.43V75.87C154.753 79.5567 155.779 82.45 157.833 84.55C159.886 86.65 162.733 87.7 166.373 87.7C168.146 87.7 169.756 87.42 171.203 86.86C172.696 86.3 173.933 85.5067 174.913 84.48C175.939 83.4533 176.733 82.2167 177.293 80.77C177.853 79.3233 178.133 77.69 178.133 75.87V73.49H168.893V76.36C168.893 76.8733 168.823 77.34 168.683 77.76C168.589 78.18 168.426 78.53 168.193 78.81C168.006 79.09 167.749 79.3233 167.423 79.51C167.143 79.65 166.816 79.72 166.443 79.72C165.696 79.72 165.089 79.4167 164.623 78.81C164.203 78.2033 163.993 77.3867 163.993 76.36V61.87ZM180.671 87H189.911V51.3H180.671V87ZM194.811 87H204.051V60.26C204.051 58.6267 203.864 57.2033 203.491 55.99C203.117 54.7767 202.604 53.7733 201.951 52.98C201.344 52.14 200.621 51.5333 199.781 51.16C198.941 50.7867 198.031 50.6 197.051 50.6C195.651 50.6 194.391 50.9967 193.271 51.79C192.197 52.5833 191.311 53.7733 190.611 55.36H189.771V61.45C189.911 61.03 190.074 60.6567 190.261 60.33C190.447 59.9567 190.657 59.6533 190.891 59.42C191.171 59.1867 191.451 59 191.731 58.86C192.011 58.72 192.314 58.65 192.641 58.65C193.247 58.65 193.761 58.93 194.181 59.49C194.601 60.0033 194.811 60.7033 194.811 61.59V87ZM206.587 87H215.827V51.3H206.587V87ZM220.727 87H229.967V60.26C229.967 58.6267 229.781 57.2033 229.407 55.99C229.034 54.7767 228.521 53.7733 227.867 52.98C227.261 52.14 226.537 51.5333 225.697 51.16C224.857 50.7867 223.947 50.6 222.967 50.6C221.567 50.6 220.307 50.9967 219.187 51.79C218.114 52.5833 217.227 53.7733 216.527 55.36H215.687V61.45C215.827 61.03 215.991 60.6567 216.177 60.33C216.364 59.9567 216.574 59.6533 216.807 59.42C217.087 59.1867 217.367 59 217.647 58.86C217.927 58.72 218.231 58.65 218.557 58.65C219.164 58.65 219.677 58.93 220.097 59.49C220.517 60.0033 220.727 60.7033 220.727 61.59V87Z" fill="#1B8AD3"/>
<path d="M63.12 115H70.208V113.72H64.56V104.024H63.12V115ZM74.7951 115.16C77.1951 115.16 78.8111 113.496 78.8111 111C78.8111 108.504 77.1951 106.84 74.7951 106.84C72.3951 106.84 70.7791 108.504 70.7791 111C70.7791 113.496 72.3951 115.16 74.7951 115.16ZM74.7951 114.04C73.1631 114.04 72.0591 112.824 72.0591 111C72.0591 109.176 73.1631 107.96 74.7951 107.96C76.4271 107.96 77.5311 109.176 77.5311 111C77.5311 112.824 76.4271 114.04 74.7951 114.04ZM83.9826 115.16C86.3826 115.16 87.9986 113.496 87.9986 111C87.9986 108.504 86.3826 106.84 83.9826 106.84C81.5826 106.84 79.9666 108.504 79.9666 111C79.9666 113.496 81.5826 115.16 83.9826 115.16ZM83.9826 114.04C82.3506 114.04 81.2466 112.824 81.2466 111C81.2466 109.176 82.3506 107.96 83.9826 107.96C85.6146 107.96 86.7186 109.176 86.7186 111C86.7186 112.824 85.6146 114.04 83.9826 114.04ZM89.3819 115H90.6619V112.184L91.6539 111.208L94.7099 115H96.3419L92.5659 110.312L95.9099 107H94.1179L90.6619 110.472V104.024H89.3819V115ZM97.3663 105.784H98.6463V104.024H97.3663V105.784ZM97.3663 115H98.6463V107H97.3663V115ZM100.569 115H101.849V110.264C101.849 108.888 102.761 107.96 104.121 107.96C105.481 107.96 106.393 108.888 106.393 110.264V115H107.673V110.04C107.673 108.12 106.345 106.84 104.345 106.84C103.417 106.84 102.409 107.32 101.849 108.024V107H100.569V115ZM115.496 107V108.28C114.904 107.416 113.8 106.84 112.728 106.84C110.44 106.84 108.904 108.472 108.904 110.92C108.904 113.368 110.44 115 112.728 115C113.8 115 114.92 114.424 115.496 113.576V114.136C115.496 115.864 114.424 117.016 112.84 117.016C111.544 117.016 110.52 116.2 110.28 115H109.08C109.4 116.872 110.904 118.136 112.84 118.136C115.192 118.136 116.776 116.536 116.776 114.136V107H115.496ZM112.856 113.88C111.256 113.88 110.184 112.696 110.184 110.92C110.184 109.144 111.256 107.96 112.856 107.96C114.44 107.96 115.496 109.144 115.496 110.92C115.496 112.696 114.44 113.88 112.856 113.88ZM122.823 115H124.103V108.12H125.895V107H124.103V106.104C124.103 105.464 124.519 105.032 125.127 105.032H125.895V104.024C125.687 103.928 125.335 103.864 125.031 103.864C123.703 103.864 122.823 104.76 122.823 106.104V107H121.543V108.12H122.823V115ZM130.17 115.16C132.57 115.16 134.186 113.496 134.186 111C134.186 108.504 132.57 106.84 130.17 106.84C127.77 106.84 126.154 108.504 126.154 111C126.154 113.496 127.77 115.16 130.17 115.16ZM130.17 114.04C128.538 114.04 127.434 112.824 127.434 111C127.434 109.176 128.538 107.96 130.17 107.96C131.802 107.96 132.906 109.176 132.906 111C132.906 112.824 131.802 114.04 130.17 114.04ZM135.569 115H136.849V110.328C136.849 108.904 137.809 107.96 139.249 107.96H139.793V107C139.633 106.904 139.377 106.84 139.137 106.84C138.337 106.84 137.425 107.352 136.849 108.104V107H135.569V115ZM147.189 115.16C149.253 115.16 150.629 114.168 150.629 112.696C150.629 111.368 149.797 110.728 147.381 110.232C145.989 109.896 145.493 109.592 145.493 109.048C145.493 108.392 146.181 107.96 147.189 107.96C148.117 107.96 148.901 108.44 149.141 109.16L150.309 108.872C149.877 107.656 148.629 106.84 147.189 106.84C145.413 106.84 144.213 107.768 144.213 109.144C144.213 110.328 144.965 110.904 147.109 111.384C148.789 111.768 149.365 112.12 149.365 112.76C149.365 113.528 148.485 114.04 147.189 114.04C145.845 114.04 144.933 113.336 144.901 112.28H143.701C143.733 114.008 145.141 115.16 147.189 115.16ZM155.795 115.16C158.195 115.16 159.811 113.496 159.811 111C159.811 108.504 158.195 106.84 155.795 106.84C153.395 106.84 151.779 108.504 151.779 111C151.779 113.496 153.395 115.16 155.795 115.16ZM155.795 114.04C154.163 114.04 153.059 112.824 153.059 111C153.059 109.176 154.163 107.96 155.795 107.96C157.427 107.96 158.531 109.176 158.531 111C158.531 112.824 157.427 114.04 155.795 114.04ZM161.194 115H162.474V109.608C162.474 108.616 163.194 107.96 164.25 107.96C165.306 107.96 166.026 108.616 166.026 109.608V115H167.306V109.608C167.306 108.616 168.026 107.96 169.082 107.96C170.138 107.96 170.858 108.616 170.858 109.608V115H172.138V109.48C172.138 107.896 170.97 106.84 169.21 106.84C168.266 106.84 167.306 107.336 166.794 108.056C166.282 107.336 165.37 106.84 164.522 106.84C163.738 106.84 162.922 107.256 162.474 107.896V107H161.194V115ZM177.53 115.16C179.322 115.16 180.858 114.008 181.37 112.28H180.09C179.738 113.336 178.714 114.04 177.53 114.04C175.962 114.04 174.874 112.92 174.81 111.256H181.418L181.546 111.128C181.546 108.568 179.93 106.84 177.53 106.84C175.13 106.84 173.514 108.504 173.514 111C173.514 113.496 175.13 115.16 177.53 115.16ZM174.874 110.136C175.162 108.84 176.234 107.96 177.53 107.96C178.826 107.96 179.898 108.84 180.186 110.136H174.874ZM185.628 115.16C186.012 115.16 186.54 115.096 186.94 115V114.04H185.548C184.94 114.04 184.524 113.608 184.524 112.952V108.12H186.86V107H184.524V104.024H183.244V107H181.964V108.12H183.244V112.952C183.244 114.28 184.204 115.16 185.628 115.16ZM188.382 115H189.662V110.264C189.662 108.888 190.574 107.96 191.934 107.96C193.294 107.96 194.206 108.888 194.206 110.264V115H195.486V110.04C195.486 108.12 194.158 106.84 192.158 106.84C191.23 106.84 190.222 107.32 189.662 108.024V104.024H188.382V115ZM197.413 105.784H198.693V104.024H197.413V105.784ZM197.413 115H198.693V107H197.413V115ZM200.616 115H201.896V110.264C201.896 108.888 202.808 107.96 204.168 107.96C205.528 107.96 206.44 108.888 206.44 110.264V115H207.72V110.04C207.72 108.12 206.392 106.84 204.392 106.84C203.464 106.84 202.456 107.32 201.896 108.024V107H200.616V115ZM215.543 107V108.28C214.951 107.416 213.847 106.84 212.775 106.84C210.487 106.84 208.951 108.472 208.951 110.92C208.951 113.368 210.487 115 212.775 115C213.847 115 214.967 114.424 215.543 113.576V114.136C215.543 115.864 214.471 117.016 212.887 117.016C211.591 117.016 210.567 116.2 210.327 115H209.127C209.447 116.872 210.951 118.136 212.887 118.136C215.239 118.136 216.823 116.536 216.823 114.136V107H215.543ZM212.903 113.88C211.303 113.88 210.231 112.696 210.231 110.92C210.231 109.144 211.303 107.96 212.903 107.96C214.487 107.96 215.543 109.144 215.543 110.92C215.543 112.696 214.487 113.88 212.903 113.88ZM225.582 115.16C225.966 115.16 226.494 115.096 226.894 115V114.04H225.502C224.894 114.04 224.478 113.608 224.478 112.952V108.12H226.814V107H224.478V104.024H223.198V107H221.918V108.12H223.198V112.952C223.198 114.28 224.158 115.16 225.582 115.16ZM231.655 115.16C234.055 115.16 235.671 113.496 235.671 111C235.671 108.504 234.055 106.84 231.655 106.84C229.255 106.84 227.639 108.504 227.639 111C227.639 113.496 229.255 115.16 231.655 115.16ZM231.655 114.04C230.023 114.04 228.919 112.824 228.919 111C228.919 109.176 230.023 107.96 231.655 107.96C233.287 107.96 234.391 109.176 234.391 111C234.391 112.824 233.287 114.04 231.655 114.04ZM242.402 115H243.714L245.394 108.776L247.074 115H248.386L251.138 107H249.794L247.762 113.544L245.986 107H244.818L243.026 113.544L240.994 107H239.65L242.402 115ZM255.511 115.16C256.583 115.16 257.735 114.552 258.359 113.656V115H259.639V107H258.359V108.344C257.735 107.448 256.583 106.84 255.511 106.84C253.175 106.84 251.607 108.504 251.607 111C251.607 113.496 253.175 115.16 255.511 115.16ZM255.639 114.04C253.991 114.04 252.887 112.824 252.887 111C252.887 109.176 253.991 107.96 255.639 107.96C257.271 107.96 258.359 109.176 258.359 111C258.359 112.824 257.271 114.04 255.639 114.04ZM264.425 115.16C264.809 115.16 265.337 115.096 265.737 115V114.04H264.345C263.737 114.04 263.321 113.608 263.321 112.952V108.12H265.657V107H263.321V104.024H262.041V107H260.761V108.12H262.041V112.952C262.041 114.28 263.001 115.16 264.425 115.16ZM270.498 115.16C272.546 115.16 274.114 113.784 274.418 111.752H273.202C272.962 113.128 271.874 114.04 270.498 114.04C268.866 114.04 267.762 112.824 267.762 111C267.762 109.176 268.866 107.96 270.498 107.96C271.874 107.96 272.946 108.84 273.186 110.168H274.402C274.098 108.168 272.53 106.84 270.498 106.84C268.098 106.84 266.482 108.504 266.482 111C266.482 113.496 268.098 115.16 270.498 115.16ZM275.96 115H277.24V110.264C277.24 108.888 278.152 107.96 279.512 107.96C280.872 107.96 281.784 108.888 281.784 110.264V115H283.064V110.04C283.064 108.12 281.736 106.84 279.736 106.84C278.808 106.84 277.8 107.32 277.24 108.024V104.024H275.96V115ZM292.996 115.16C295.364 115.16 296.964 113.496 296.964 111C296.964 108.504 295.364 106.84 292.996 106.84C291.876 106.84 290.708 107.448 290.084 108.36V104.024H288.804V115H290.084V113.64C290.708 114.552 291.876 115.16 292.996 115.16ZM292.868 114.04C291.204 114.04 290.084 112.824 290.084 111C290.084 109.176 291.204 107.96 292.868 107.96C294.548 107.96 295.684 109.176 295.684 111C295.684 112.824 294.548 114.04 292.868 114.04ZM305.611 107H304.331V111.736C304.331 113.112 303.419 114.04 302.059 114.04C300.699 114.04 299.787 113.112 299.787 111.736V107H298.507V111.96C298.507 113.88 299.835 115.16 301.835 115.16C302.763 115.16 303.771 114.68 304.331 113.976V115H305.611V107ZM310.566 115.16C310.95 115.16 311.478 115.096 311.878 115V114.04H310.486C309.878 114.04 309.462 113.608 309.462 112.952V108.12H311.798V107H309.462V104.024H308.182V107H306.902V108.12H308.182V112.952C308.182 114.28 309.142 115.16 310.566 115.16ZM320.091 115.16C321.211 115.16 322.379 114.552 323.003 113.64V115H324.283V104.024H323.003V108.36C322.379 107.448 321.211 106.84 320.091 106.84C317.723 106.84 316.123 108.504 316.123 111C316.123 113.496 317.723 115.16 320.091 115.16ZM320.219 114.04C318.539 114.04 317.403 112.824 317.403 111C317.403 109.176 318.539 107.96 320.219 107.96C321.883 107.96 323.003 109.176 323.003 111C323.003 112.824 321.883 114.04 320.219 114.04ZM329.842 115.16C332.242 115.16 333.858 113.496 333.858 111C333.858 108.504 332.242 106.84 329.842 106.84C327.442 106.84 325.826 108.504 325.826 111C325.826 113.496 327.442 115.16 329.842 115.16ZM329.842 114.04C328.21 114.04 327.106 112.824 327.106 111C327.106 109.176 328.21 107.96 329.842 107.96C331.474 107.96 332.578 109.176 332.578 111C332.578 112.824 331.474 114.04 329.842 114.04ZM335.241 115H336.521V110.264C336.521 108.888 337.433 107.96 338.793 107.96C340.153 107.96 341.065 108.888 341.065 110.264V115H342.345V110.04C342.345 108.12 341.017 106.84 339.017 106.84C338.089 106.84 337.081 107.32 336.521 108.024V107H335.241V115ZM343.632 107.544C344.688 107.544 345.392 106.84 345.392 105.784V104.024H343.632V105.784H344.432C344.432 106.264 344.112 106.584 343.632 106.584V107.544ZM350.503 115.16C350.887 115.16 351.415 115.096 351.815 115V114.04H350.423C349.815 114.04 349.399 113.608 349.399 112.952V108.12H351.735V107H349.399V104.024H348.119V107H346.839V108.12H348.119V112.952C348.119 114.28 349.079 115.16 350.503 115.16ZM62.96 134H64.24V131.184L65.232 130.208L68.288 134H69.92L66.144 129.312L69.488 126H67.696L64.24 129.472V123.024H62.96V134ZM71.2569 134H72.5369V129.264C72.5369 127.888 73.4489 126.96 74.8089 126.96C76.1689 126.96 77.0809 127.888 77.0809 129.264V134H78.3609V129.04C78.3609 127.12 77.0329 125.84 75.0329 125.84C74.1049 125.84 73.0969 126.32 72.5369 127.024V126H71.2569V134ZM83.7639 134.16C86.1639 134.16 87.7799 132.496 87.7799 130C87.7799 127.504 86.1639 125.84 83.7639 125.84C81.3639 125.84 79.7479 127.504 79.7479 130C79.7479 132.496 81.3639 134.16 83.7639 134.16ZM83.7639 133.04C82.1319 133.04 81.0279 131.824 81.0279 130C81.0279 128.176 82.1319 126.96 83.7639 126.96C85.3959 126.96 86.4999 128.176 86.4999 130C86.4999 131.824 85.3959 133.04 83.7639 133.04ZM90.6985 134H92.0105L93.6905 127.776L95.3705 134H96.6825L99.4345 126H98.0905L96.0585 132.544L94.2825 126H93.1145L91.3225 132.544L89.2905 126H87.9465L90.6985 134ZM106.277 134H107.589L109.269 127.776L110.949 134H112.261L115.013 126H113.669L111.637 132.544L109.861 126H108.693L106.901 132.544L104.869 126H103.525L106.277 134ZM116.351 134H117.631V129.264C117.631 127.888 118.543 126.96 119.903 126.96C121.263 126.96 122.175 127.888 122.175 129.264V134H123.455V129.04C123.455 127.12 122.127 125.84 120.127 125.84C119.199 125.84 118.191 126.32 117.631 127.024V123.024H116.351V134ZM128.902 134.16C129.974 134.16 131.126 133.552 131.75 132.656V134H133.03V126H131.75V127.344C131.126 126.448 129.974 125.84 128.902 125.84C126.566 125.84 124.998 127.504 124.998 130C124.998 132.496 126.566 134.16 128.902 134.16ZM129.03 133.04C127.382 133.04 126.278 131.824 126.278 130C126.278 128.176 127.382 126.96 129.03 126.96C130.662 126.96 131.75 128.176 131.75 130C131.75 131.824 130.662 133.04 129.03 133.04ZM137.816 134.16C138.2 134.16 138.728 134.096 139.128 134V133.04H137.736C137.128 133.04 136.712 132.608 136.712 131.952V127.12H139.048V126H136.712V123.024H135.432V126H134.152V127.12H135.432V131.952C135.432 133.28 136.392 134.16 137.816 134.16ZM143.289 130.48H144.473C144.473 128.832 147.337 128.192 147.337 125.904C147.337 124.08 146.009 122.864 144.025 122.864C141.769 122.864 140.233 124.368 140.185 126.608H141.385C141.433 125.04 142.489 123.984 144.025 123.984C145.241 123.984 146.057 124.752 146.057 125.904C146.057 127.472 143.289 128.112 143.289 130.48ZM143.001 134H144.761V132.24H143.001V134ZM156.651 134H158.091V128.752H160.363L163.627 134H165.323L162.043 128.72C163.579 128.528 164.619 127.392 164.619 125.888C164.619 124.176 163.323 123.024 161.403 123.024H156.651V134ZM158.091 127.472V124.304H161.403C162.459 124.304 163.179 124.944 163.179 125.888C163.179 126.832 162.459 127.472 161.403 127.472H158.091ZM169.746 134.16C170.818 134.16 171.97 133.552 172.594 132.656V134H173.874V126H172.594V127.344C171.97 126.448 170.818 125.84 169.746 125.84C167.41 125.84 165.842 127.504 165.842 130C165.842 132.496 167.41 134.16 169.746 134.16ZM169.874 133.04C168.226 133.04 167.122 131.824 167.122 130C167.122 128.176 168.226 126.96 169.874 126.96C171.506 126.96 172.594 128.176 172.594 130C172.594 131.824 171.506 133.04 169.874 133.04ZM175.788 124.784H177.068V123.024H175.788V124.784ZM175.788 134H177.068V126H175.788V134ZM182.575 134.16C183.695 134.16 184.863 133.552 185.487 132.64V134H186.767V123.024H185.487V127.36C184.863 126.448 183.695 125.84 182.575 125.84C180.207 125.84 178.607 127.504 178.607 130C178.607 132.496 180.207 134.16 182.575 134.16ZM182.703 133.04C181.023 133.04 179.887 131.824 179.887 130C179.887 128.176 181.023 126.96 182.703 126.96C184.367 126.96 185.487 128.176 185.487 130C185.487 131.824 184.367 133.04 182.703 133.04ZM192.326 134.16C194.118 134.16 195.654 133.008 196.166 131.28H194.886C194.534 132.336 193.51 133.04 192.326 133.04C190.758 133.04 189.67 131.92 189.606 130.256H196.214L196.342 130.128C196.342 127.568 194.726 125.84 192.326 125.84C189.926 125.84 188.31 127.504 188.31 130C188.31 132.496 189.926 134.16 192.326 134.16ZM189.67 129.136C189.958 127.84 191.03 126.96 192.326 126.96C193.622 126.96 194.694 127.84 194.982 129.136H189.67ZM197.882 134H199.162V129.264C199.162 127.888 200.074 126.96 201.434 126.96C202.794 126.96 203.706 127.888 203.706 129.264V134H204.986V129.04C204.986 127.12 203.658 125.84 201.658 125.84C200.73 125.84 199.722 126.32 199.162 127.024V126H197.882V134ZM206.913 134H208.193V129.264C208.193 127.888 209.105 126.96 210.465 126.96C211.825 126.96 212.737 127.888 212.737 129.264V134H214.017V129.04C214.017 127.12 212.689 125.84 210.689 125.84C209.761 125.84 208.753 126.32 208.193 127.024V126H206.913V134ZM221.449 134H222.761L224.441 127.776L226.121 134H227.433L230.185 126H228.841L226.809 132.544L225.033 126H223.865L222.073 132.544L220.041 126H218.697L221.449 134ZM231.523 124.784H232.803V123.024H231.523V124.784ZM231.523 134H232.803V126H231.523V134ZM234.882 134H236.162V123.024H234.882V134ZM238.398 134H239.678V123.024H238.398V134ZM248.205 134.16C250.269 134.16 251.645 133.168 251.645 131.696C251.645 130.368 250.813 129.728 248.397 129.232C247.005 128.896 246.509 128.592 246.509 128.048C246.509 127.392 247.197 126.96 248.205 126.96C249.133 126.96 249.917 127.44 250.157 128.16L251.325 127.872C250.893 126.656 249.645 125.84 248.205 125.84C246.429 125.84 245.229 126.768 245.229 128.144C245.229 129.328 245.981 129.904 248.125 130.384C249.805 130.768 250.381 131.12 250.381 131.76C250.381 132.528 249.501 133.04 248.205 133.04C246.861 133.04 245.949 132.336 245.917 131.28H244.717C244.749 133.008 246.157 134.16 248.205 134.16ZM253.023 134H254.303V129.264C254.303 127.888 255.215 126.96 256.575 126.96C257.935 126.96 258.847 127.888 258.847 129.264V134H260.127V129.04C260.127 127.12 258.799 125.84 256.799 125.84C255.871 125.84 254.863 126.32 254.303 127.024V123.024H253.023V134ZM265.53 134.16C267.93 134.16 269.546 132.496 269.546 130C269.546 127.504 267.93 125.84 265.53 125.84C263.13 125.84 261.514 127.504 261.514 130C261.514 132.496 263.13 134.16 265.53 134.16ZM265.53 133.04C263.898 133.04 262.794 131.824 262.794 130C262.794 128.176 263.898 126.96 265.53 126.96C267.162 126.96 268.266 128.176 268.266 130C268.266 131.824 267.162 133.04 265.53 133.04ZM272.464 134H273.776L275.456 127.776L277.136 134H278.448L281.2 126H279.856L277.824 132.544L276.048 126H274.88L273.088 132.544L271.056 126H269.712L272.464 134ZM286.502 136.976H287.878L292.198 126H290.822L288.518 131.872L286.182 126H284.822L287.862 133.52L286.502 136.976ZM296.53 134.16C298.93 134.16 300.546 132.496 300.546 130C300.546 127.504 298.93 125.84 296.53 125.84C294.13 125.84 292.514 127.504 292.514 130C292.514 132.496 294.13 134.16 296.53 134.16ZM296.53 133.04C294.898 133.04 293.794 131.824 293.794 130C293.794 128.176 294.898 126.96 296.53 126.96C298.162 126.96 299.266 128.176 299.266 130C299.266 131.824 298.162 133.04 296.53 133.04ZM309.189 126H307.909V130.736C307.909 132.112 306.997 133.04 305.637 133.04C304.277 133.04 303.365 132.112 303.365 130.736V126H302.085V130.96C302.085 132.88 303.413 134.16 305.413 134.16C306.341 134.16 307.349 133.68 307.909 132.976V134H309.189V126ZM314.929 134H316.209V123.024H314.929V134ZM321.652 134.16C322.724 134.16 323.876 133.552 324.5 132.656V134H325.78V126H324.5V127.344C323.876 126.448 322.724 125.84 321.652 125.84C319.316 125.84 317.748 127.504 317.748 130C317.748 132.496 319.316 134.16 321.652 134.16ZM321.78 133.04C320.132 133.04 319.028 131.824 319.028 130C319.028 128.176 320.132 126.96 321.78 126.96C323.412 126.96 324.5 128.176 324.5 130C324.5 131.824 323.412 133.04 321.78 133.04ZM330.566 134.16C330.95 134.16 331.478 134.096 331.878 134V133.04H330.486C329.878 133.04 329.462 132.608 329.462 131.952V127.12H331.798V126H329.462V123.024H328.182V126H326.902V127.12H328.182V131.952C328.182 133.28 329.142 134.16 330.566 134.16ZM336.639 134.16C338.431 134.16 339.967 133.008 340.479 131.28H339.199C338.847 132.336 337.823 133.04 336.639 133.04C335.071 133.04 333.983 131.92 333.919 130.256H340.527L340.655 130.128C340.655 127.568 339.039 125.84 336.639 125.84C334.239 125.84 332.623 127.504 332.623 130C332.623 132.496 334.239 134.16 336.639 134.16ZM333.983 129.136C334.271 127.84 335.343 126.96 336.639 126.96C337.935 126.96 339.007 127.84 339.295 129.136H333.983ZM344.814 134.16C346.878 134.16 348.254 133.168 348.254 131.696C348.254 130.368 347.422 129.728 345.006 129.232C343.614 128.896 343.118 128.592 343.118 128.048C343.118 127.392 343.806 126.96 344.814 126.96C345.742 126.96 346.526 127.44 346.766 128.16L347.934 127.872C347.502 126.656 346.254 125.84 344.814 125.84C343.038 125.84 341.838 126.768 341.838 128.144C341.838 129.328 342.59 129.904 344.734 130.384C346.414 130.768 346.99 131.12 346.99 131.76C346.99 132.528 346.11 133.04 344.814 133.04C343.47 133.04 342.558 132.336 342.526 131.28H341.326C341.358 133.008 342.766 134.16 344.814 134.16ZM352.66 134.16C353.044 134.16 353.572 134.096 353.972 134V133.04H352.58C351.972 133.04 351.556 132.608 351.556 131.952V127.12H353.892V126H351.556V123.024H350.276V126H348.996V127.12H350.276V131.952C350.276 133.28 351.236 134.16 352.66 134.16ZM66.48 153.16C67.552 153.16 68.704 152.552 69.328 151.656V153H70.608V145H69.328V146.344C68.704 145.448 67.552 144.84 66.48 144.84C64.144 144.84 62.576 146.504 62.576 149C62.576 151.496 64.144 153.16 66.48 153.16ZM66.608 152.04C64.96 152.04 63.856 150.824 63.856 149C63.856 147.176 64.96 145.96 66.608 145.96C68.24 145.96 69.328 147.176 69.328 149C69.328 150.824 68.24 152.04 66.608 152.04ZM72.5225 153H73.8025V148.264C73.8025 146.888 74.7145 145.96 76.0745 145.96C77.4345 145.96 78.3465 146.888 78.3465 148.264V153H79.6265V148.04C79.6265 146.12 78.2985 144.84 76.2985 144.84C75.3705 144.84 74.3625 145.32 73.8025 146.024V145H72.5225V153ZM84.9815 153.16C86.1015 153.16 87.2695 152.552 87.8935 151.64V153H89.1735V142.024H87.8935V146.36C87.2695 145.448 86.1015 144.84 84.9815 144.84C82.6135 144.84 81.0135 146.504 81.0135 149C81.0135 151.496 82.6135 153.16 84.9815 153.16ZM85.1095 152.04C83.4295 152.04 82.2935 150.824 82.2935 149C82.2935 147.176 83.4295 145.96 85.1095 145.96C86.7735 145.96 87.8935 147.176 87.8935 149C87.8935 150.824 86.7735 152.04 85.1095 152.04ZM101.121 145V146.28C100.529 145.416 99.4251 144.84 98.3531 144.84C96.0651 144.84 94.5291 146.472 94.5291 148.92C94.5291 151.368 96.0651 153 98.3531 153C99.4251 153 100.545 152.424 101.121 151.576V152.136C101.121 153.864 100.049 155.016 98.4651 155.016C97.1691 155.016 96.1451 154.2 95.9051 153H94.7051C95.0251 154.872 96.5291 156.136 98.4651 156.136C100.817 156.136 102.401 154.536 102.401 152.136V145H101.121ZM98.4811 151.88C96.8811 151.88 95.8091 150.696 95.8091 148.92C95.8091 147.144 96.8811 145.96 98.4811 145.96C100.065 145.96 101.121 147.144 101.121 148.92C101.121 150.696 100.065 151.88 98.4811 151.88ZM104.319 153H105.599V148.328C105.599 146.904 106.559 145.96 107.999 145.96H108.543V145C108.383 144.904 108.127 144.84 107.887 144.84C107.087 144.84 106.175 145.352 105.599 146.104V145H104.319V153ZM112.811 153.16C114.603 153.16 116.139 152.008 116.651 150.28H115.371C115.019 151.336 113.995 152.04 112.811 152.04C111.243 152.04 110.155 150.92 110.091 149.256H116.699L116.827 149.128C116.827 146.568 115.211 144.84 112.811 144.84C110.411 144.84 108.795 146.504 108.795 149C108.795 151.496 110.411 153.16 112.811 153.16ZM110.155 148.136C110.443 146.84 111.515 145.96 112.811 145.96C114.107 145.96 115.179 146.84 115.467 148.136H110.155ZM121.886 153.16C122.958 153.16 124.11 152.552 124.734 151.656V153H126.014V145H124.734V146.344C124.11 145.448 122.958 144.84 121.886 144.84C119.55 144.84 117.982 146.504 117.982 149C117.982 151.496 119.55 153.16 121.886 153.16ZM122.014 152.04C120.366 152.04 119.262 150.824 119.262 149C119.262 147.176 120.366 145.96 122.014 145.96C123.646 145.96 124.734 147.176 124.734 149C124.734 150.824 123.646 152.04 122.014 152.04ZM130.8 153.16C131.184 153.16 131.712 153.096 132.112 153V152.04H130.72C130.112 152.04 129.696 151.608 129.696 150.952V146.12H132.032V145H129.696V142.024H128.416V145H127.136V146.12H128.416V150.952C128.416 152.28 129.376 153.16 130.8 153.16ZM136.873 153.16C138.665 153.16 140.201 152.008 140.713 150.28H139.433C139.081 151.336 138.057 152.04 136.873 152.04C135.305 152.04 134.217 150.92 134.153 149.256H140.761L140.889 149.128C140.889 146.568 139.273 144.84 136.873 144.84C134.473 144.84 132.857 146.504 132.857 149C132.857 151.496 134.473 153.16 136.873 153.16ZM134.217 148.136C134.505 146.84 135.577 145.96 136.873 145.96C138.169 145.96 139.241 146.84 139.529 148.136H134.217ZM145.048 153.16C147.112 153.16 148.488 152.168 148.488 150.696C148.488 149.368 147.656 148.728 145.24 148.232C143.848 147.896 143.352 147.592 143.352 147.048C143.352 146.392 144.04 145.96 145.048 145.96C145.976 145.96 146.76 146.44 147 147.16L148.168 146.872C147.736 145.656 146.488 144.84 145.048 144.84C143.272 144.84 142.072 145.768 142.072 147.144C142.072 148.328 142.824 148.904 144.968 149.384C146.648 149.768 147.224 150.12 147.224 150.76C147.224 151.528 146.344 152.04 145.048 152.04C143.704 152.04 142.792 151.336 142.76 150.28H141.56C141.592 152.008 143 153.16 145.048 153.16ZM152.894 153.16C153.278 153.16 153.806 153.096 154.206 153V152.04H152.814C152.206 152.04 151.79 151.608 151.79 150.952V146.12H154.126V145H151.79V142.024H150.51V145H149.23V146.12H150.51V150.952C150.51 152.28 151.47 153.16 152.894 153.16ZM165.159 145H162.311H160.743V144.104C160.743 143.464 161.159 143.032 161.767 143.032H162.311V142.024C162.135 141.928 161.879 141.864 161.671 141.864C160.343 141.864 159.463 142.76 159.463 144.104V145H158.183V146.12H159.463V153H160.743V146.12H161.911H163.879V153H165.159V145ZM163.879 142.024V143.784H165.159V142.024H163.879ZM167.241 153H168.521V142.024H167.241V153ZM170.444 153H171.724V147.608C171.724 146.616 172.444 145.96 173.5 145.96C174.556 145.96 175.276 146.616 175.276 147.608V153H176.556V147.608C176.556 146.616 177.276 145.96 178.332 145.96C179.388 145.96 180.108 146.616 180.108 147.608V153H181.388V147.48C181.388 145.896 180.22 144.84 178.46 144.84C177.516 144.84 176.556 145.336 176.044 146.056C175.532 145.336 174.62 144.84 173.772 144.84C172.988 144.84 172.172 145.256 171.724 145.896V145H170.444V153ZM186.252 153.16C188.316 153.16 189.692 152.168 189.692 150.696C189.692 149.368 188.86 148.728 186.444 148.232C185.052 147.896 184.556 147.592 184.556 147.048C184.556 146.392 185.244 145.96 186.252 145.96C187.18 145.96 187.964 146.44 188.204 147.16L189.372 146.872C188.94 145.656 187.692 144.84 186.252 144.84C184.476 144.84 183.276 145.768 183.276 147.144C183.276 148.328 184.028 148.904 186.172 149.384C187.852 149.768 188.428 150.12 188.428 150.76C188.428 151.528 187.548 152.04 186.252 152.04C184.908 152.04 183.996 151.336 183.964 150.28H182.764C182.796 152.008 184.204 153.16 186.252 153.16ZM190.741 154.76C191.797 154.76 192.501 154.056 192.501 153V151.24H190.741V153H191.541C191.541 153.48 191.221 153.8 190.741 153.8V154.76ZM198.241 155.976H199.521V151.64C200.145 152.552 201.313 153.16 202.449 153.16C204.817 153.16 206.401 151.496 206.401 149C206.401 146.504 204.817 144.84 202.449 144.84C201.313 144.84 200.145 145.448 199.521 146.36V145H198.241V155.976ZM202.321 152.04C200.641 152.04 199.521 150.824 199.521 149C199.521 147.176 200.641 145.96 202.321 145.96C204.001 145.96 205.121 147.176 205.121 149C205.121 150.824 204.001 152.04 202.321 152.04ZM211.464 153.16C212.536 153.16 213.688 152.552 214.312 151.656V153H215.592V145H214.312V146.344C213.688 145.448 212.536 144.84 211.464 144.84C209.128 144.84 207.56 146.504 207.56 149C207.56 151.496 209.128 153.16 211.464 153.16ZM211.592 152.04C209.944 152.04 208.84 150.824 208.84 149C208.84 147.176 209.944 145.96 211.592 145.96C213.224 145.96 214.312 147.176 214.312 149C214.312 150.824 213.224 152.04 211.592 152.04ZM220.455 153.16C222.519 153.16 223.895 152.168 223.895 150.696C223.895 149.368 223.063 148.728 220.647 148.232C219.255 147.896 218.759 147.592 218.759 147.048C218.759 146.392 219.447 145.96 220.455 145.96C221.383 145.96 222.167 146.44 222.407 147.16L223.575 146.872C223.143 145.656 221.895 144.84 220.455 144.84C218.679 144.84 217.479 145.768 217.479 147.144C217.479 148.328 218.231 148.904 220.375 149.384C222.055 149.768 222.631 150.12 222.631 150.76C222.631 151.528 221.751 152.04 220.455 152.04C219.111 152.04 218.199 151.336 218.167 150.28H216.967C216.999 152.008 218.407 153.16 220.455 153.16ZM228.3 153.16C228.684 153.16 229.212 153.096 229.612 153V152.04H228.22C227.612 152.04 227.196 151.608 227.196 150.952V146.12H229.532V145H227.196V142.024H225.916V145H224.636V146.12H225.916V150.952C225.916 152.28 226.876 153.16 228.3 153.16ZM238.074 153.16C239.146 153.16 240.298 152.552 240.922 151.656V153H242.202V145H240.922V146.344C240.298 145.448 239.146 144.84 238.074 144.84C235.738 144.84 234.17 146.504 234.17 149C234.17 151.496 235.738 153.16 238.074 153.16ZM238.202 152.04C236.554 152.04 235.45 150.824 235.45 149C235.45 147.176 236.554 145.96 238.202 145.96C239.834 145.96 240.922 147.176 240.922 149C240.922 150.824 239.834 152.04 238.202 152.04ZM244.116 153H245.396V148.264C245.396 146.888 246.308 145.96 247.668 145.96C249.028 145.96 249.94 146.888 249.94 148.264V153H251.22V148.04C251.22 146.12 249.892 144.84 247.892 144.84C246.964 144.84 245.956 145.32 245.396 146.024V145H244.116V153ZM256.575 153.16C257.695 153.16 258.863 152.552 259.487 151.64V153H260.767V142.024H259.487V146.36C258.863 145.448 257.695 144.84 256.575 144.84C254.207 144.84 252.607 146.504 252.607 149C252.607 151.496 254.207 153.16 256.575 153.16ZM256.703 152.04C255.023 152.04 253.887 150.824 253.887 149C253.887 147.176 255.023 145.96 256.703 145.96C258.367 145.96 259.487 147.176 259.487 149C259.487 150.824 258.367 152.04 256.703 152.04ZM266.507 155.976H267.787V151.64C268.411 152.552 269.579 153.16 270.715 153.16C273.083 153.16 274.667 151.496 274.667 149C274.667 146.504 273.083 144.84 270.715 144.84C269.579 144.84 268.411 145.448 267.787 146.36V145H266.507V155.976ZM270.587 152.04C268.907 152.04 267.787 150.824 267.787 149C267.787 147.176 268.907 145.96 270.587 145.96C272.267 145.96 273.387 147.176 273.387 149C273.387 150.824 272.267 152.04 270.587 152.04ZM276.054 153H277.334V148.328C277.334 146.904 278.294 145.96 279.734 145.96H280.278V145C280.118 144.904 279.862 144.84 279.622 144.84C278.822 144.84 277.91 145.352 277.334 146.104V145H276.054V153ZM284.545 153.16C286.337 153.16 287.873 152.008 288.385 150.28H287.105C286.753 151.336 285.729 152.04 284.545 152.04C282.977 152.04 281.889 150.92 281.825 149.256H288.433L288.561 149.128C288.561 146.568 286.945 144.84 284.545 144.84C282.145 144.84 280.529 146.504 280.529 149C280.529 151.496 282.145 153.16 284.545 153.16ZM281.889 148.136C282.177 146.84 283.249 145.96 284.545 145.96C285.841 145.96 286.913 146.84 287.201 148.136H281.889ZM292.72 153.16C294.784 153.16 296.16 152.168 296.16 150.696C296.16 149.368 295.328 148.728 292.912 148.232C291.52 147.896 291.024 147.592 291.024 147.048C291.024 146.392 291.712 145.96 292.72 145.96C293.648 145.96 294.432 146.44 294.672 147.16L295.84 146.872C295.408 145.656 294.16 144.84 292.72 144.84C290.944 144.84 289.744 145.768 289.744 147.144C289.744 148.328 290.496 148.904 292.64 149.384C294.32 149.768 294.896 150.12 294.896 150.76C294.896 151.528 294.016 152.04 292.72 152.04C291.376 152.04 290.464 151.336 290.432 150.28H289.232C289.264 152.008 290.672 153.16 292.72 153.16ZM301.326 153.16C303.118 153.16 304.654 152.008 305.166 150.28H303.886C303.534 151.336 302.51 152.04 301.326 152.04C299.758 152.04 298.67 150.92 298.606 149.256H305.214L305.342 149.128C305.342 146.568 303.726 144.84 301.326 144.84C298.926 144.84 297.31 146.504 297.31 149C297.31 151.496 298.926 153.16 301.326 153.16ZM298.67 148.136C298.958 146.84 300.03 145.96 301.326 145.96C302.622 145.96 303.694 146.84 303.982 148.136H298.67ZM306.882 153H308.162V148.264C308.162 146.888 309.074 145.96 310.434 145.96C311.794 145.96 312.706 146.888 312.706 148.264V153H313.986V148.04C313.986 146.12 312.658 144.84 310.658 144.84C309.73 144.84 308.722 145.32 308.162 146.024V145H306.882V153ZM318.785 153.16C319.169 153.16 319.697 153.096 320.097 153V152.04H318.705C318.097 152.04 317.681 151.608 317.681 150.952V146.12H320.017V145H317.681V142.024H316.401V145H315.121V146.12H316.401V150.952C316.401 152.28 317.361 153.16 318.785 153.16ZM321.226 153H322.986V151.24H321.226V153Z" fill="#F4FEFF"/>
<rect x="478" width="23" height="218" fill="#1B8AD3"/>
</svg>
